<svg xmlns="http://www.w3.org/2000/svg" viewBox="0 0 128 128">
<circle cx="64" cy="64" r="64" fill="#F0B90B"/>
<path fill="#fff" d="M42.6 64 31.8 74.8 21 64l10.8-10.8L42.6 64Zm21.4-21.4L45.7 40.3 64 22l18.3 18.3L64 42.6Zm42 21.4L95.2 74.8 84.4 64l10.8-10.8L106 64ZM64 106 45.7 87.7 64 85.4l18.3 18.3L64 106Zm0-32.7L54.7 64l9.3-9.3 9.3 9.3-9.3 9.3Z"/>
<path fill="#fff" d="m64 49.3 14.7 14.7L64 78.7 49.3 64 64 49.3Zm-25 14.7 7.3-7.3 7.3 7.3-7.3 7.3L39 64Zm42.7 0 7.3-7.3 7.3 7.3-7.3 7.3-7.3-7.3ZM64 24.7l7.3 7.3L64 39.3 56.7 32 64 24.7Zm0 64 7.3 7.3-7.3 7.3-7.3-7.3 7.3-7.3Z"/>
</svg>