<svg xmlns="http://www.w3.org/2000/svg" viewBox="0 0 1600 800" preserveAspectRatio="none">
<defs><filter id="glow"><feGaussianBlur stdDeviation="2.2" result="b"/><feMerge><feMergeNode in="b"/><feMergeNode in="SourceGraphic"/></feMerge></filter></defs><rect width="1600" height="800" fill="none"/><g fill="none" stroke="#f70375" stroke-opacity=".22" stroke-width="1.4"><path d="M670 0v140h-90v110H430"/><path d="M800 0v220h70v110h170"/><path d="M520 800V640h120v-95h160"/><path d="M1230 0v170h-125v92h-145"/><path d="M1420 800V620h-190v-90h-130"/><path d="M0 340h230v-82h176"/><path d="M1600 390h-250v-70h-170"/><path d="M730 390h160l70-90h220"/><path d="M540 490h210l80 78h185"/></g><g fill="#f70375" fill-opacity=".5" filter="url(#glow)"><circle cx="580" cy="140" r="5"/><circle cx="870" cy="220" r="5"/><circle cx="1105" cy="262" r="5"/><circle cx="640" cy="545" r="5"/><circle cx="1230" cy="530" r="5"/><circle cx="430" cy="258" r="4"/><circle cx="1350" cy="320" r="4"/><circle cx="960" cy="300" r="4"/></g></svg>