<svg xmlns="http://www.w3.org/2000/svg" width="1200" height="720" viewBox="0 0 1200 720" fill="none">
  <defs>
    <radialGradient id="g" cx="50%" cy="50%" r="55%"><stop offset="0" stop-color="#ff0a79" stop-opacity="0.32"/><stop offset="0.42" stop-color="#b3005c" stop-opacity="0.12"/><stop offset="1" stop-color="#050006" stop-opacity="0"/></radialGradient>
    <linearGradient id="l" x1="0" x2="1" y1="0" y2="1"><stop stop-color="#ff0a79" stop-opacity="0.7"/><stop offset="1" stop-color="#6d2dff" stop-opacity="0.08"/></linearGradient>
  </defs>
  <rect width="1200" height="720" fill="url(#g)"/>
  <g stroke="url(#l)" stroke-width="1.4" opacity="0.48">
    <path d="M615 78v84h46v56h77v64"/><path d="M770 42v90h53v74h88v72"/><path d="M520 118h-72v68h-95v58"/><path d="M678 350h105v66h132"/><path d="M540 380h-90v54h-100"/>
    <path d="M700 165h-34M738 282h-52M823 206h-45M448 186h-45M350 244h-48M450 434h-48"/>
  </g>
  <g fill="#ff0a79" opacity="0.78">
    <circle cx="615" cy="78" r="4"/><circle cx="661" cy="218" r="4"/><circle cx="738" cy="282" r="4"/><circle cx="911" cy="278" r="4"/><circle cx="520" cy="118" r="4"/><circle cx="350" cy="244" r="4"/><circle cx="678" cy="350" r="4"/><circle cx="915" cy="416" r="4"/>
  </g>
  <g stroke="#ff0a79" opacity="0.22"><circle cx="626" cy="410" r="120"/><circle cx="626" cy="410" r="170"/><ellipse cx="626" cy="500" rx="300" ry="54"/></g>
</svg>