<svg xmlns="http://www.w3.org/2000/svg" viewBox="0 0 520 720">
<defs><radialGradient id="g" cx="45%" cy="32%" r="62%"><stop offset="0" stop-color="#ff3aa4" stop-opacity=".55"/><stop offset=".42" stop-color="#6b063d" stop-opacity=".45"/><stop offset="1" stop-color="#020004" stop-opacity="0"/></radialGradient><linearGradient id="p" x1="0" y1="0" x2="1" y2="1"><stop stop-color="#ff087d"/><stop offset="1" stop-color="#250016"/></linearGradient><filter id="blur"><feGaussianBlur stdDeviation="3"/></filter></defs><rect width="520" height="720" fill="none"/><circle cx="210" cy="220" r="230" fill="url(#g)" filter="url(#blur)"/><g fill="none" stroke-linecap="round" stroke-linejoin="round"><path d="M55 255C115 95 306 52 392 145c52 57 30 158-43 222-91 80-237 88-300 18 82 16 180-3 247-60 60-52 80-116 47-153-52-58-181-26-233 79" stroke="#ff0a7e" stroke-opacity=".55" stroke-width="6"/><path d="M104 260c42-79 117-125 189-112 72 13 104 82 72 145-39 76-158 118-246 77 70-2 146-40 181-93 35-53 18-95-34-103-53-8-113 29-155 86" stroke="#ff64b5" stroke-opacity=".48" stroke-width="4"/><path d="M155 263c34-42 87-62 128-47 41 15 51 60 21 98-34 44-104 59-154 32 45 0 93-22 118-52 20-25 15-50-13-59-29-10-68 3-100 28" stroke="#ffd3e9" stroke-opacity=".20" stroke-width="3"/><path d="M201 380c-36 110-90 198-151 282" stroke="#7d0647" stroke-opacity=".48" stroke-width="7"/><path d="M227 392c61 70 132 119 220 146" stroke="#7d0647" stroke-opacity=".33" stroke-width="6"/><path d="M114 486c-44-24-86-29-126-15 57 28 103 32 139 11" stroke="#ff0a7e" stroke-opacity=".22" stroke-width="4"/><path d="M292 483c64-13 121-4 173 28-76 18-132 11-171-23" stroke="#ff0a7e" stroke-opacity=".19" stroke-width="4"/></g></svg>