<svg xmlns="http://www.w3.org/2000/svg" viewBox="0 0 760 760" role="img" aria-label="Black Rose blockchain orbit">
  <defs>
    <radialGradient id="g" cx="50%" cy="48%" r="62%">
      <stop offset="0" stop-color="#ff4aa4" stop-opacity=".72"/>
      <stop offset=".38" stop-color="#f70375" stop-opacity=".36"/>
      <stop offset=".72" stop-color="#6d1dff" stop-opacity=".18"/>
      <stop offset="1" stop-color="#030005" stop-opacity="0"/>
    </radialGradient>
    <linearGradient id="p" x1="0" y1="0" x2="1" y2="1">
      <stop offset="0" stop-color="#ff6db5"/><stop offset=".48" stop-color="#f70375"/><stop offset="1" stop-color="#7b2cff"/>
    </linearGradient>
    <filter id="blur"><feGaussianBlur stdDeviation="11"/></filter>
  </defs>
  <circle cx="380" cy="380" r="330" fill="url(#g)"/>
  <g fill="none" stroke="url(#p)" stroke-linecap="round" stroke-linejoin="round">
    <path d="M381 102C293 171 258 253 301 349c-89-35-164-17-222 53 92 7 163 44 209 115-10 76 15 128 90 157 7-83 47-143 118-181 76-16 126-62 150-137-85 9-155-14-208-70 12-83-8-145-57-184Z" stroke-width="5" opacity=".72"/>
    <path d="M379 180c-55 50-69 104-42 162-49-17-92-4-130 39 57 7 101 31 131 72-4 50 14 86 55 111 8-51 32-90 73-117 51-13 85-43 102-88-52 4-96-12-132-48 4-54-15-98-57-131Z" stroke-width="4" opacity=".9"/>
    <path d="M379 260c-25 30-30 62-14 96-32-8-58 3-80 30 36 6 64 23 85 50 1 32 15 56 43 70 5-34 22-60 50-77 34-10 57-30 69-61-35 1-65-10-90-34 1-36-20-64-63-74Z" stroke-width="3" opacity=".92"/>
    <path d="M381 348c-13 15-16 31-8 48-16-4-29 2-40 16 18 4 32 12 43 25 1 16 9 28 23 35 3-17 12-30 26-38 17-5 28-15 34-30-18 0-32-6-44-18 0-17-11-31-34-38Z" stroke-width="3" opacity="1"/>
    <ellipse cx="380" cy="382" rx="302" ry="86" transform="rotate(-18 380 382)" stroke-width="2" opacity=".45"/>
    <ellipse cx="380" cy="382" rx="294" ry="88" transform="rotate(22 380 382)" stroke-width="2" opacity=".35"/>
    <circle cx="146" cy="393" r="7" fill="#ff4aa4" stroke="none"/><circle cx="616" cy="301" r="6" fill="#f70375" stroke="none"/><circle cx="530" cy="586" r="5" fill="#9b5cff" stroke="none"/>
  </g>
  <g stroke="#ff5dae" stroke-width="2" opacity=".48" fill="none">
    <path d="M95 470h68l45 42h88"/><path d="M530 156h-74l-40 52h-72"/><path d="M635 482h-70l-48-44h-65"/>
  </g>
</svg>