<svg xmlns="http://www.w3.org/2000/svg" viewBox="0 0 1600 900" preserveAspectRatio="xMidYMid slice">
  <defs>
    <radialGradient id="g" cx="35%" cy="42%" r="42%"><stop offset="0" stop-color="#f70375" stop-opacity=".62"/><stop offset=".35" stop-color="#5b003d" stop-opacity=".42"/><stop offset="1" stop-color="#000" stop-opacity="0"/></radialGradient>
    <linearGradient id="l" x1="0" x2="1"><stop stop-color="#f70375" stop-opacity="0"/><stop offset=".5" stop-color="#f70375" stop-opacity=".55"/><stop offset="1" stop-color="#7b2cff" stop-opacity="0"/></linearGradient>
  </defs>
  <rect width="1600" height="900" fill="none"/>
  <g opacity=".72">
    <path d="M1040 155v120h-90v82h-120v98h-90" fill="none" stroke="#f70375" stroke-opacity=".42" stroke-width="2"/>
    <path d="M1160 120v145h-75v70h110v135" fill="none" stroke="#f70375" stroke-opacity=".28" stroke-width="2"/>
    <path d="M760 210h85v75h105v82" fill="none" stroke="#f70375" stroke-opacity=".30" stroke-width="2"/>
    <path d="M1290 260h-150v85h-80" fill="none" stroke="#f70375" stroke-opacity=".22" stroke-width="2"/>
    <g fill="#f70375">
      <circle cx="1040" cy="155" r="5" opacity=".7"/><circle cx="950" cy="357" r="4" opacity=".7"/><circle cx="740" cy="455" r="5" opacity=".48"/><circle cx="1160" cy="120" r="4" opacity=".55"/><circle cx="1290" cy="260" r="5" opacity=".45"/><circle cx="760" cy="210" r="5" opacity=".52"/>
    </g>
  </g>
  <g transform="translate(-110 95)" opacity=".88">
    <ellipse cx="275" cy="260" rx="230" ry="270" fill="url(#g)"/>
    <path d="M230 75C110 108 62 220 98 332c28 88 122 160 232 147 114-13 196-101 201-205C536 150 407 39 284 84c67 19 116 67 124 132-56-88-162-124-258-78 77 4 142 48 166 117-71-50-151-57-225-16 50 11 91 38 117 81-45-20-90-20-134 0 36 45 89 75 149 82-61 11-113-3-156-39 31 104 132 180 251 167 143-15 246-141 221-285C512 88 355 12 230 75Z" fill="none" stroke="#ff2d95" stroke-opacity=".78" stroke-width="6"/>
    <path d="M168 333c110-78 220-78 330 0" fill="none" stroke="#f70375" stroke-opacity=".32" stroke-width="4"/>
    <path d="M205 190c90-42 170-36 240 18" fill="none" stroke="#ff83c2" stroke-opacity=".30" stroke-width="3"/>
  </g>
  <ellipse cx="940" cy="660" rx="330" ry="70" fill="url(#l)" opacity=".45"/>
  <circle cx="940" cy="500" r="178" fill="none" stroke="#f70375" stroke-opacity=".18" stroke-width="2"/>
  <circle cx="940" cy="500" r="238" fill="none" stroke="#f70375" stroke-opacity=".10" stroke-width="1"/>
</svg>