<svg xmlns="http://www.w3.org/2000/svg" viewBox="0 0 64 64" role="img" aria-label="Polygon">
  <circle cx="32" cy="32" r="32" fill="#8247E5"/>
  <path fill="#fff" d="M43.9 20.8c-1.1-.6-2.5-.6-3.7 0l-8.4 4.9-5.7-3.3c-1.1-.6-2.5-.6-3.7 0l-7.6 4.4c-1.1.7-1.8 1.9-1.8 3.2v8.8c0 1.3.7 2.5 1.8 3.2l7.6 4.4c1.1.6 2.5.6 3.7 0l8.4-4.9 5.7 3.3c1.1.6 2.5.6 3.7 0l7.6-4.4c1.1-.7 1.8-1.9 1.8-3.2v-8.8c0-1.3-.7-2.5-1.8-3.2l-7.6-4.4Zm-18.8 20-6.4-3.7v-7.4l6.4-3.7 6.4 3.7v7.4l-6.4 3.7Zm17.3-1.6-6.4-3.7v-7.4l6.4-3.7 6.4 3.7v7.4l-6.4 3.7Z"/>
</svg>
